0
SECTION
2
HEADER
9
$ACADVER
1
AC1015
9
$EXTMIN
10
0.0
20
0.0
9
$EXTMAX
10
500.0
20
400.0
0
ENDSEC
0
SECTION
2
TABLES
0
TABLE
2
LAYER
70
4
0
LAYER
2
WALL
70
0
62
1
6
CONTINUOUS
0
LAYER
2
DOOR
70
0
62
3
6
CONTINUOUS
0
LAYER
2
ELECTRIC
70
0
62
5
6
CONTINUOUS
0
LAYER
2
TEXT
70
0
62
7
6
CONTINUOUS
0
ENDTAB
0
ENDSEC
0
SECTION
2
ENTITIES
0
LINE
8
WALL
10
50.0
20
50.0
11
450.0
21
50.0
0
LINE
8
WALL
10
450.0
20
50.0
11
450.0
21
350.0
0
LINE
8
WALL
10
450.0
20
350.0
11
50.0
21
350.0
0
LINE
8
WALL
10
50.0
20
350.0
11
50.0
21
50.0
0
LINE
8
WALL
10
250.0
20
50.0
11
250.0
21
350.0
0
LINE
8
WALL
10
50.0
20
200.0
11
250.0
21
200.0
0
LINE
8
WALL
10
250.0
20
200.0
11
450.0
21
200.0
0
LINE
8
DOOR
10
140.0
20
50.0
11
180.0
21
50.0
0
ARC
8
DOOR
10
140.0
20
50.0
40
40.0
50
0.0
51
90.0
0
LINE
8
DOOR
10
250.0
20
120.0
11
250.0
21
160.0
0
ARC
8
DOOR
10
250.0
20
120.0
40
40.0
50
0.0
51
90.0
0
LINE
8
DOOR
10
340.0
20
200.0
11
380.0
21
200.0
0
ARC
8
DOOR
10
380.0
20
200.0
40
40.0
50
90.0
51
180.0
0
CIRCLE
8
ELECTRIC
10
150.0
20
125.0
40
8.0
0
LINE
8
ELECTRIC
10
142.0
20
125.0
11
158.0
21
125.0
0
LINE
8
ELECTRIC
10
150.0
20
117.0
11
150.0
21
133.0
0
CIRCLE
8
ELECTRIC
10
150.0
20
275.0
40
8.0
0
LINE
8
ELECTRIC
10
142.0
20
275.0
11
158.0
21
275.0
0
LINE
8
ELECTRIC
10
150.0
20
267.0
11
150.0
21
283.0
0
CIRCLE
8
ELECTRIC
10
350.0
20
125.0
40
8.0
0
LINE
8
ELECTRIC
10
342.0
20
125.0
11
358.0
21
125.0
0
LINE
8
ELECTRIC
10
350.0
20
117.0
11
350.0
21
133.0
0
CIRCLE
8
ELECTRIC
10
350.0
20
275.0
40
8.0
0
LINE
8
ELECTRIC
10
342.0
20
275.0
11
358.0
21
275.0
0
LINE
8
ELECTRIC
10
350.0
20
267.0
11
350.0
21
283.0
0
LINE
8
ELECTRIC
10
100.0
20
125.0
11
142.0
21
125.0
0
LINE
8
ELECTRIC
10
150.0
20
133.0
11
150.0
21
200.0
0
LINE
8
ELECTRIC
10
100.0
20
200.0
11
150.0
21
200.0
0
RECTANGLE
8
ELECTRIC
10
80.0
20
260.0
11
120.0
21
290.0
0
LINE
8
ELECTRIC
10
120.0
20
275.0
11
142.0
21
275.0
0
LINE
8
ELECTRIC
10
150.0
20
283.0
11
150.0
21
350.0
0
LINE
8
ELECTRIC
10
100.0
20
290.0
11
150.0
21
290.0
0
LINE
8
ELECTRIC
10
300.0
20
125.0
11
342.0
21
125.0
0
LINE
8
ELECTRIC
10
350.0
20
133.0
11
350.0
21
200.0
0
LINE
8
ELECTRIC
10
300.0
20
200.0
11
450.0
21
200.0
0
RECTANGLE
8
ELECTRIC
10
380.0
20
260.0
11
420.0
21
290.0
0
LINE
8
ELECTRIC
10
380.0
20
275.0
11
358.0
21
275.0
0
LINE
8
ELECTRIC
10
350.0
20
283.0
11
350.0
21
350.0
0
LINE
8
ELECTRIC
10
300.0
20
290.0
11
450.0
21
290.0
0
TEXT
8
TEXT
10
130.0
20
145.0
40
10.0
1
AL-01
0
TEXT
8
TEXT
10
130.0
20
295.0
40
10.0
1
AL-02
0
TEXT
8
TEXT
10
330.0
20
145.0
40
10.0
1
AP-01
0
TEXT
8
TEXT
10
330.0
20
295.0
40
10.0
1
AP-02
0
TEXT
8
TEXT
10
80.0
20
310.0
40
8.0
1
MCC-01
0
TEXT
8
TEXT
10
380.0
20
310.0
40
8.0
1
MCC-02
0
TEXT
8
TEXT
10
200.0
20
380.0
40
14.0
1
ONE-LINE DIAGRAM
0
ENDSEC
0
EOF
